<svg width="157" height="55" viewBox="0 0 157 55" fill="none" xmlns="http://www.w3.org/2000/svg">
<path d="M15.144 35.9992L15.12 27.0952L10.8 34.3432H8.688L4.368 27.2872V35.9992H0V19.1992H3.912L9.816 28.8952L15.576 19.1992H19.488L19.536 35.9992H15.144Z" fill="white"/>
<path d="M81.368 32.3272V35.9992H67.88V19.1992H81.056V22.8712H72.584V25.7032H80.048V29.2552H72.584V32.3272H81.368Z" fill="white"/>
<path d="M101.669 19.1992V35.9992H97.757L90.341 27.0472V35.9992H85.685V19.1992H89.597L97.013 28.1512V19.1992H101.669Z" fill="white"/>
<path d="M106.701 19.1992H111.453V35.9992H106.701V19.1992Z" fill="white"/>
<path d="M124.266 36.3352C121.77 36.3352 119.826 35.6552 118.434 34.2952C117.058 32.9352 116.37 31.0072 116.37 28.5112V19.1992H121.122V28.3672C121.122 31.0552 122.186 32.3992 124.314 32.3992C126.426 32.3992 127.482 31.0552 127.482 28.3672V19.1992H132.162V28.5112C132.162 31.0072 131.466 32.9352 130.074 34.2952C128.698 35.6552 126.762 36.3352 124.266 36.3352Z" fill="white"/>
<path d="M152.229 35.9992L152.181 27.0952L147.861 34.3432H145.749L141.453 27.3352V35.9992H137.061V19.1992H140.973L146.877 28.8952L152.637 19.1992H156.549L156.597 35.9992H152.229Z" fill="white"/>
<rect x="26.2" y="19" width="7" height="17" fill="#6B5AF9"/>
<rect x="40.2" y="7" width="7" height="41" fill="#6B5AF9"/>
<rect x="54.2" width="7" height="55" fill="#6B5AF9"/>
</svg>
